<svg id="Layer_1" data-name="Layer 1" xmlns="http://www.w3.org/2000/svg" xmlns:xlink="http://www.w3.org/1999/xlink" viewBox="0 0 2035.69 1073.96">
<defs><style>.cls-1{fill:none;stroke:#000;stroke-miterlimit:10;}.cls-2{fill-rule:evenodd;fill:url(#linear-gradient);}</style>
<linearGradient id="linear-gradient" x1="902.5" y1="538.34" x2="902.5" y2="1161.18" gradientUnits="userSpaceOnUse">
<stop offset="0" stop-color="#009245"/><stop offset="0.37" stop-color="#2da644"/></linearGradient></defs><title>about_svg</title>
<path class="cls-1" d="M-115,1073,811,683.71l-4,.16H1919.69c.22-4.48-8.68.1,0,0-1-5.75,2-12.91-3-17.58-3.13,3.89-3.22,15.81,3,17.58,0-5.55,1-12-.57-17.78-1,2.62.41,1.19,0,0,.57,5.75-1.43,12.23.57,17.78,0-40-1.87-1.6,0,0,0-227.65,1-456.22-1-683.87H.45" transform="translate(115.19 0.5)"/>
<path class="cls-2" d="M-115,1073,811,683.71l-4,.16H1919.69c.22-4.48-8.68.1,0,0-1-5.75,2-12.91-3-17.58-3.13,3.89-3.22,15.81,3,17.58,0-5.55,1-12-.57-17.78-1,2.62.41,1.19,0,0,.57,5.75-1.43,12.23.57,17.78,0-40-1.87-1.6,0,0,0-227.65,1-456.22-1-683.87H.45" transform="translate(115.19 0.5)"/>
</svg>